<svg version="1.1" xmlns="http://www.w3.org/2000/svg" xmlns:xlink="http://www.w3.org/1999/xlink" width="58.08635" height="57.76316"><g transform="translate(-210.95682,-151.11842)"><g data-paper-data="{&quot;isPaintingLayer&quot;:true}" fill="none" fill-rule="nonzero" stroke="none" stroke-width="none" stroke-linecap="none" stroke-linejoin="miter" stroke-miterlimit="10" stroke-dasharray="" stroke-dashoffset="0" font-family="none" font-weight="none" font-size="none" text-anchor="none" style="mix-blend-mode: normal"><path d="M253.1071,184.58438c-8.77749,0 -15.89305,-7.49161 -15.89305,-16.73298c0,-9.24137 7.11556,-16.73298 15.89305,-16.73298c8.77749,0 15.89305,7.49161 15.89305,16.73298c0,9.24137 -7.11556,16.73298 -15.89305,16.73298z" data-paper-data="{&quot;origPos&quot;:null,&quot;index&quot;:null}" fill="#000000" stroke="none" stroke-width="NaN" stroke-linecap="butt"/><path d="M253.15012,208.83627c-8.77749,0 -15.89305,-7.4916 -15.89305,-16.73297c0,-9.24137 7.11556,-16.73298 15.89305,-16.73298c8.77749,0 15.89306,7.49161 15.89306,16.73298c0,9.24137 -7.11557,16.73297 -15.89306,16.73297z" data-paper-data="{&quot;origPos&quot;:null,&quot;index&quot;:null}" fill="#000000" stroke="none" stroke-width="NaN" stroke-linecap="butt"/><path d="M254.41337,192.83626v-25.90173h14.58678v25.90173z" data-paper-data="{&quot;origPos&quot;:null,&quot;index&quot;:null}" fill="#000000" stroke="none" stroke-width="0" stroke-linecap="butt"/><path d="M234.38378,185.27203v-8.02266h9.14395v8.02266z" data-paper-data="{&quot;origPos&quot;:null,&quot;index&quot;:null}" fill="#000000" stroke="none" stroke-width="0" stroke-linecap="butt"/><path d="M226.76382,208.88158v-15.8161h28.95584v15.8161z" data-paper-data="{&quot;origPos&quot;:null,&quot;index&quot;:null}" fill="#000000" stroke="none" stroke-width="0" stroke-linecap="butt"/><path d="M225.45755,164.41312v-13.29469h27.21413v13.29469z" data-paper-data="{&quot;origPos&quot;:null,&quot;index&quot;:null}" fill="#000000" stroke="none" stroke-width="0" stroke-linecap="butt"/><path d="M210.95682,168.03532c0,-9.24137 7.11556,-16.73298 15.89305,-16.73298c8.77749,0 15.89306,7.49161 15.89306,16.73298c0,9.24137 -7.11557,16.73297 -15.89306,16.73297c-8.77749,0 -15.89305,-7.4916 -15.89305,-16.73297z" data-paper-data="{&quot;origPos&quot;:null,&quot;index&quot;:null}" fill="#000000" stroke="none" stroke-width="NaN" stroke-linecap="butt"/><path d="M211.13151,192.05799c0,-9.24137 7.11557,-16.73298 15.89306,-16.73298c8.77749,0 15.89305,7.49161 15.89305,16.73298c0,9.24137 -7.11556,16.73297 -15.89305,16.73297c-8.77749,0 -15.89306,-7.4916 -15.89306,-16.73297z" data-paper-data="{&quot;origPos&quot;:null,&quot;index&quot;:null}" fill="#000000" stroke="none" stroke-width="NaN" stroke-linecap="butt"/><path d="M210.95684,193.02016v-25.90172h14.58677v25.90172z" data-paper-data="{&quot;index&quot;:null,&quot;origPos&quot;:null}" fill="#000000" stroke="none" stroke-width="0" stroke-linecap="butt"/><path d="M233.75001,163.49999v23" data-paper-data="{&quot;origPos&quot;:null,&quot;index&quot;:null}" fill="none" stroke="#ffffff" stroke-width="7.5" stroke-linecap="round"/><path d="M220.75001,163.74999v23" data-paper-data="{&quot;origPos&quot;:null,&quot;index&quot;:null}" fill="none" stroke="#ffffff" stroke-width="7.5" stroke-linecap="round"/></g></g></svg>