<svg version="1.1" xmlns="http://www.w3.org/2000/svg" xmlns:xlink="http://www.w3.org/1999/xlink" width="314" height="130.99997"><g transform="translate(-132.33333,-190.80006)"><g data-paper-data="{&quot;isPaintingLayer&quot;:true}" fill="none" fill-rule="nonzero" stroke="none" stroke-width="0" stroke-linecap="butt" stroke-linejoin="miter" stroke-miterlimit="10" stroke-dasharray="" stroke-dashoffset="0" font-family="none" font-weight="none" font-size="none" text-anchor="none" style="mix-blend-mode: normal"><path d="M132.33333,319.80003l18,-32l16,32z" data-paper-data="{&quot;origPos&quot;:null}" fill="#0d1616"/><path d="M163.33333,319.80003l18,-32l16,32z" data-paper-data="{&quot;origPos&quot;:null}" fill="#000000"/><path d="M192.33333,319.80003l18,-32l16,32z" data-paper-data="{&quot;origPos&quot;:null}" fill="#000000"/><path d="M223.33333,319.80003l18,-32l16,32z" data-paper-data="{&quot;origPos&quot;:null}" fill="#000000"/><path d="M255.33333,319.80003l18,-32l16,32z" data-paper-data="{&quot;origPos&quot;:null}" fill="#000000"/><path d="M286.33333,319.80003l18,-32l16,32z" data-paper-data="{&quot;origPos&quot;:null}" fill="#000000"/><path d="M315.33333,319.80003l18,-32l16,32z" data-paper-data="{&quot;origPos&quot;:null}" fill="#000000"/><path d="M346.33333,319.80003l18,-32l16,32z" data-paper-data="{&quot;origPos&quot;:null}" fill="#000000"/><path d="M330.33333,222.80007l18,-32l16,32z" data-paper-data="{&quot;origPos&quot;:null}" fill="#000000"/><path d="M378.33333,320.80003l18,-32l16,32z" data-paper-data="{&quot;origPos&quot;:null}" fill="#000000"/><path d="M412.33333,321.80003l18,-32l16,32z" data-paper-data="{&quot;origPos&quot;:null}" fill="#000000"/></g></g></svg>