<svg version="1.1" xmlns="http://www.w3.org/2000/svg" xmlns:xlink="http://www.w3.org/1999/xlink" width="348" height="51"><g transform="translate(-94.33333,-273.80004)"><g data-paper-data="{&quot;isPaintingLayer&quot;:true}" fill="#000000" fill-rule="nonzero" stroke="none" stroke-width="0" stroke-linecap="butt" stroke-linejoin="miter" stroke-miterlimit="10" stroke-dasharray="" stroke-dashoffset="0" font-family="none" font-weight="none" font-size="none" text-anchor="none" style="mix-blend-mode: normal"><path d="M94.33333,320.80003l18,-32l16,32z" data-paper-data="{&quot;origPos&quot;:null}"/><path d="M126.33333,320.80003l18,-32l16,32z" data-paper-data="{&quot;origPos&quot;:null}"/><path d="M157.33333,321.80003l18,-32l16,32z" data-paper-data="{&quot;origPos&quot;:null}"/><path d="M188.33333,320.80003l18,-32l16,32z" data-paper-data="{&quot;origPos&quot;:null}"/><path d="M220.33333,320.80003l18,-32l16,32z" data-paper-data="{&quot;origPos&quot;:null}"/><path d="M251.33333,321.80003l18,-32l16,32z" data-paper-data="{&quot;origPos&quot;:null}"/><path d="M282.33333,322.80003l18,-32l16,32z" data-paper-data="{&quot;origPos&quot;:null}"/><path d="M314.33333,322.80003l18,-32l16,32z" data-paper-data="{&quot;origPos&quot;:null}"/><path d="M345.33333,323.80003l18,-32l16,32z" data-paper-data="{&quot;origPos&quot;:null}"/><path d="M376.33333,322.80003l18,-32l16,32z" data-paper-data="{&quot;origPos&quot;:null}"/><path d="M408.33333,324.80003l18,-51l16,51z" data-paper-data="{&quot;origPos&quot;:null}"/></g></g></svg>