<svg version="1.1" xmlns="http://www.w3.org/2000/svg" xmlns:xlink="http://www.w3.org/1999/xlink" width="212" height="340.5"><g transform="translate(-126.33333,15.69996)"><g data-paper-data="{&quot;isPaintingLayer&quot;:true}" fill="#000000" fill-rule="nonzero" stroke="none" stroke-width="0" stroke-linecap="butt" stroke-linejoin="miter" stroke-miterlimit="10" stroke-dasharray="" stroke-dashoffset="0" font-family="none" font-weight="none" font-size="none" text-anchor="none" style="mix-blend-mode: normal"><path d="M198.33333,322.80003l18,-32l16,32z" data-paper-data="{&quot;origPos&quot;:null}"/><path d="M233.33333,269.80003l18,-32l16,32z" data-paper-data="{&quot;origPos&quot;:null}"/><path d="M264.33333,269.80003l18,-32l16,32z" data-paper-data="{&quot;origPos&quot;:null}"/><path d="M203.33333,269.80003l18,-32l16,32z" data-paper-data="{&quot;origPos&quot;:null}"/><path d="M236.33333,197.80006l18,-32l16,32z" data-paper-data="{&quot;origPos&quot;:null}"/><path d="M267.33333,197.80007l18,-32l16,32z" data-paper-data="{&quot;origPos&quot;:null}"/><path d="M149.83336,-15.69996l31.99999,18.00003l-32.00001,15.99997z" data-paper-data="{&quot;origPos&quot;:null,&quot;origRot&quot;:0}"/><path d="M149.83333,15.30004l31.99999,18.00003l-32.00002,15.99997z" data-paper-data="{&quot;origPos&quot;:null,&quot;origRot&quot;:0}"/><path d="M149.83336,45.30004l31.99999,18.00003l-32.00001,15.99997z" data-paper-data="{&quot;origPos&quot;:null,&quot;origRot&quot;:0}"/><path d="M149.83333,76.30004l31.99999,18.00003l-32.00002,15.99997z" data-paper-data="{&quot;origPos&quot;:null,&quot;origRot&quot;:0}"/><path d="M234.33333,324.80003l18,-32l16,32z" data-paper-data="{&quot;origPos&quot;:null}"/><path d="M304.33333,321.80003l18,-32l16,32z" data-paper-data="{&quot;origPos&quot;:null}"/><path d="M126.33333,321.80003l18,-32l16,32z" data-paper-data="{&quot;origPos&quot;:null}"/><path d="M161.33333,321.80003l18,-32l16,32z" data-paper-data="{&quot;origPos&quot;:null}"/></g></g></svg>