<svg version="1.1" xmlns="http://www.w3.org/2000/svg" xmlns:xlink="http://www.w3.org/1999/xlink" width="381" height="101.19522"><g transform="translate(-88.33333,-222.60481)"><g data-paper-data="{&quot;isPaintingLayer&quot;:true}" fill="#000000" fill-rule="nonzero" stroke="none" stroke-width="0" stroke-linecap="butt" stroke-linejoin="miter" stroke-miterlimit="10" stroke-dasharray="" stroke-dashoffset="0" font-family="none" font-weight="none" font-size="none" text-anchor="none" style="mix-blend-mode: normal"><path d="M88.33333,320.80003l18,-32l16,32z" data-paper-data="{&quot;origPos&quot;:null}"/><path d="M120.33333,320.80003l18,-32l16,32z" data-paper-data="{&quot;origPos&quot;:null}"/><path d="M151.33333,321.80003l18,-32l16,32z" data-paper-data="{&quot;origPos&quot;:null}"/><path d="M182.33333,320.80003l18,-32l16,32z" data-paper-data="{&quot;origPos&quot;:null}"/><path d="M214.33333,320.80003l18,-32l16,32z" data-paper-data="{&quot;origPos&quot;:null}"/><path d="M245.33333,321.80003l18,-32l16,32z" data-paper-data="{&quot;origPos&quot;:null}"/><path d="M276.33333,320.80003l18,-32l16,32z" data-paper-data="{&quot;origPos&quot;:null}"/><path d="M308.33333,320.80003l18,-32l16,32z" data-paper-data="{&quot;origPos&quot;:null}"/><path d="M341.33333,322.80003l18,-32l16,32z" data-paper-data="{&quot;origPos&quot;:null}"/><path d="M373.33333,322.80003l18,-32l16,32z" data-paper-data="{&quot;origPos&quot;:null}"/><path d="M404.33333,323.80003l18,-32l16,32z" data-paper-data="{&quot;origPos&quot;:null}"/><path d="M435.33333,322.80003l18,-32l16,32z" data-paper-data="{&quot;origPos&quot;:null}"/><path d="M228.14307,226.60481l-17.60724,32.21778l-16.39022,-31.80189z" data-paper-data="{&quot;origPos&quot;:null,&quot;origRot&quot;:0}"/><path d="M365.14307,222.60481l-17.60724,32.21778l-16.39022,-31.80189z" data-paper-data="{&quot;origPos&quot;:null,&quot;origRot&quot;:0}"/><path d="M263.33333,259.80003l18,-32l16,32z" data-paper-data="{&quot;origPos&quot;:null}"/><path d="M401.33333,260.80003l18,-32l16,32z" data-paper-data="{&quot;origPos&quot;:null}"/></g></g></svg>