<svg version="1.1" xmlns="http://www.w3.org/2000/svg" xmlns:xlink="http://www.w3.org/1999/xlink" width="163.00001" height="333.99999"><g transform="translate(-126.33333,13.19996)"><g data-paper-data="{&quot;isPaintingLayer&quot;:true}" fill="#000000" fill-rule="nonzero" stroke="none" stroke-width="0" stroke-linecap="butt" stroke-linejoin="miter" stroke-miterlimit="10" stroke-dasharray="" stroke-dashoffset="0" font-family="none" font-weight="none" font-size="none" text-anchor="none" style="mix-blend-mode: normal"><path d="M288.33334,320.80003l-32.00001,-17.99998l31.99999,-16.00002z" data-paper-data="{&quot;origPos&quot;:null,&quot;origRot&quot;:0}"/><path d="M288.33334,288.80003l-32.00001,-17.99998l31.99999,-16.00002z" data-paper-data="{&quot;origPos&quot;:null,&quot;origRot&quot;:0}"/><path d="M289.33334,260.80003l-32.00001,-17.99998l31.99999,-16.00002z" data-paper-data="{&quot;origPos&quot;:null,&quot;origRot&quot;:0}"/><path d="M289.33334,228.80004l-32.00001,-17.99998l31.99999,-16.00002z" data-paper-data="{&quot;origPos&quot;:null,&quot;origRot&quot;:0}"/><path d="M289.33334,52.80004l-32.00001,-17.99998l31.99999,-16.00002z" data-paper-data="{&quot;origPos&quot;:null,&quot;origRot&quot;:0}"/><path d="M289.33334,20.80004l-32.00001,-17.99998l31.99999,-16.00002z" data-paper-data="{&quot;origPos&quot;:null,&quot;origRot&quot;:0}"/><path d="M158.33334,252.80002l-32.00001,-17.99998l31.99999,-16.00002z" data-paper-data="{&quot;origPos&quot;:null,&quot;origRot&quot;:0}"/><path d="M158.33334,220.80003l-32.00001,-17.99998l31.99999,-16.00002z" data-paper-data="{&quot;origPos&quot;:null,&quot;origRot&quot;:0}"/><path d="M159.33334,191.80003l-32.00001,-17.99998l31.99999,-16.00002z" data-paper-data="{&quot;origPos&quot;:null,&quot;origRot&quot;:0}"/><path d="M159.33334,159.80003l-32.00001,-17.99998l31.99999,-16.00002z" data-paper-data="{&quot;origPos&quot;:null,&quot;origRot&quot;:0}"/><path d="M160.33334,131.80003l-32.00001,-17.99998l31.99999,-16.00002z" data-paper-data="{&quot;origPos&quot;:null,&quot;origRot&quot;:0}"/><path d="M160.33334,99.80003l-32.00001,-17.99998l31.99999,-16.00002z" data-paper-data="{&quot;origPos&quot;:null,&quot;origRot&quot;:0}"/></g></g></svg>