<svg version="1.1" xmlns="http://www.w3.org/2000/svg" xmlns:xlink="http://www.w3.org/1999/xlink" width="235.49996" height="252.49996"><g transform="translate(-97.33335,-67.30008)"><g data-paper-data="{&quot;isPaintingLayer&quot;:true}" fill="#000000" fill-rule="nonzero" stroke="none" stroke-width="0" stroke-linecap="butt" stroke-linejoin="miter" stroke-miterlimit="10" stroke-dasharray="" stroke-dashoffset="0" font-family="none" font-weight="none" font-size="none" text-anchor="none" style="mix-blend-mode: normal"><path d="M252.3334,72.80006l-16,31l-18,-31z" data-paper-data="{&quot;origPos&quot;:null}"/><path d="M283.33338,72.80006l-16,31l-18,-31z" data-paper-data="{&quot;origPos&quot;:null}"/><path d="M222.33341,72.80006l-16,31l-18,-31z" data-paper-data="{&quot;origPos&quot;:null}"/><path d="M161.33335,71.80006l-16,31l-18,-31z" data-paper-data="{&quot;origPos&quot;:null}"/><path d="M192.33341,71.80006l-16,31l-18,-31z" data-paper-data="{&quot;origPos&quot;:null}"/><path d="M131.33335,71.80006l-16,31l-18,-31z" data-paper-data="{&quot;origPos&quot;:null}"/><path d="M331.83329,101.30008l-36.99991,-15.99997l36.99988,-18.00003z" data-paper-data="{&quot;origPos&quot;:null,&quot;origRot&quot;:0}"/><path d="M331.83331,132.30005l-36.99991,-15.99997l36.99988,-18.00003z" data-paper-data="{&quot;origPos&quot;:null,&quot;origRot&quot;:0}"/><path d="M331.83329,162.30005l-36.99991,-15.99997l36.99988,-18.00003z" data-paper-data="{&quot;origPos&quot;:null,&quot;origRot&quot;:0}"/><path d="M331.83331,193.30009l-36.99991,-15.99997l36.99988,-18.00003z" data-paper-data="{&quot;origPos&quot;:null,&quot;origRot&quot;:0}"/><path d="M332.83329,224.30007l-36.99991,-15.99997l36.99988,-18.00003z" data-paper-data="{&quot;origPos&quot;:null,&quot;origRot&quot;:0}"/><path d="M332.83331,255.30007l-36.99991,-15.99997l36.99988,-18.00003z" data-paper-data="{&quot;origPos&quot;:null,&quot;origRot&quot;:0}"/><path d="M195.83341,253.30008l31.99999,18.00003l-32.00001,15.99997z" data-paper-data="{&quot;origPos&quot;:null,&quot;origRot&quot;:0}"/><path d="M195.83334,284.30003l31.99999,18.00003l-32.00002,15.99997z" data-paper-data="{&quot;origPos&quot;:null,&quot;origRot&quot;:0}"/><path d="M195.83341,222.30008l31.99999,18.00003l-32.00001,15.99997z" data-paper-data="{&quot;origPos&quot;:null,&quot;origRot&quot;:0}"/><path d="M135.33333,318.80003l18,-32l16,32z" data-paper-data="{&quot;origPos&quot;:null}"/><path d="M103.33333,319.80003l18,-32l16,32z" data-paper-data="{&quot;origPos&quot;:null}"/></g></g></svg>