<svg version="1.1" xmlns="http://www.w3.org/2000/svg" xmlns:xlink="http://www.w3.org/1999/xlink" width="377" height="152"><g transform="translate(-32.33333,-170.80003)"><g data-paper-data="{&quot;isPaintingLayer&quot;:true}" fill="none" fill-rule="nonzero" stroke="none" stroke-width="0" stroke-linecap="butt" stroke-linejoin="miter" stroke-miterlimit="10" stroke-dasharray="" stroke-dashoffset="0" font-family="none" font-weight="none" font-size="none" text-anchor="none" style="mix-blend-mode: normal"><path d="M122.33333,321.80003l18,-32l16,32z" data-paper-data="{&quot;origPos&quot;:null}" fill="#000000"/><path d="M153.33333,320.80003l18,-32l16,32z" data-paper-data="{&quot;origPos&quot;:null}" fill="#000000"/><path d="M185.33333,320.80003l18,-32l16,32z" data-paper-data="{&quot;origPos&quot;:null}" fill="#000000"/><path d="M216.33333,321.80003l18,-32l16,32z" data-paper-data="{&quot;origPos&quot;:null}" fill="#0d1616"/><path d="M247.33333,320.80003l18,-32l16,32z" data-paper-data="{&quot;origPos&quot;:null}" fill="#000000"/><path d="M279.33333,320.80003l18,-32l16,32z" data-paper-data="{&quot;origPos&quot;:null}" fill="#000000"/><path d="M312.33333,322.80003l18,-32l16,32z" data-paper-data="{&quot;origPos&quot;:null}" fill="#000000"/><path d="M63.33333,320.80003l18,-32l16,32z" data-paper-data="{&quot;origPos&quot;:null}" fill="#000000"/><path d="M32.33333,320.80003l18,-32l16,32z" data-paper-data="{&quot;origPos&quot;:null}" fill="#000000"/><path d="M375.33333,202.80003l18,-32l16,32z" data-paper-data="{&quot;origPos&quot;:null}" fill="#000000"/></g></g></svg>