<svg xmlns="http://www.w3.org/2000/svg" width="555" height="330.794" xmlns:xlink="http://www.w3.org/1999/xlink" version="1.1"><g transform="translate(74 -45.4059)"><g font-family="none" font-size="none" font-weight="none" style="mix-blend-mode: normal" fill="none" fill-rule="nonzero" stroke="none" stroke-dasharray="" stroke-dashoffset="0" stroke-linecap="none" stroke-linejoin="miter" stroke-miterlimit="10" stroke-width="none" text-anchor="none" data-paper-data="{&quot;isPaintingLayer&quot;:true}"><path fill="#0c0c0c" stroke-linecap="butt" stroke-width="0" d="M -74 340.8 v -22 h 550 v 22 Z" data-paper-data="{&quot;origPos&quot;:null}" /><path fill="none" stroke-linecap="none" stroke-width="NaN" d="M -5.21654 49.2715 c 0.2029 0.34769 0.38118 0.71494 0.53484 1.10176 c 0.40702 1.0083 0.61053 2.12295 0.61053 3.34399 c 0 1.22103 -0.20351 2.34033 -0.61053 3.35785 c -0.40239 1.01291 -0.97359 1.89399 -1.7136 2.64327 c -0.73539 0.74465 -1.60724 1.32048 -2.61552 1.7275 c -1.0083 0.40239 -2.12526 0.60359 -3.35092 0.60359 l -3.85736 -1e-005 c -0.25437 0 -0.47177 -0.08788 -0.65214 -0.26363 c -0.17575 -0.18039 -0.26363 -0.39776 -0.26363 -0.65214 v -14.812 c 0 -0.27288 0.08788 -0.49259 0.26363 -0.65909 c 0.18039 -0.17113 0.39776 -0.2567 0.65214 -0.2567 h 3.85736 c 0.80042 0 1.55449 0.08679 2.26221 0.26038" data-paper-data="{&quot;origPos&quot;:null}" /><path fill="#000000" stroke-linecap="butt" stroke-width="0" d="M 192 334.8 v -143 h 26 v 143 Z" data-paper-data="{&quot;origPos&quot;:null}" /><path fill="#000000" stroke-linecap="butt" stroke-width="0" d="M -71 376.2 v -56.4 h 552 v 56.4 Z" data-paper-data="{&quot;origPos&quot;:null}" /></g></g></svg>