<svg version="1.1" xmlns="http://www.w3.org/2000/svg" xmlns:xlink="http://www.w3.org/1999/xlink" width="1248" height="421.07174"><defs><radialGradient cx="215.08072" cy="146.16368" r="111.79821" gradientUnits="userSpaceOnUse" id="color-1"><stop offset="0" stop-color="#c1c1c1"/><stop offset="1" stop-color="#c1c1c1" stop-opacity="0"/></radialGradient><radialGradient cx="474.20179" cy="35.41031" r="111.79821" gradientUnits="userSpaceOnUse" id="color-2"><stop offset="0" stop-color="#c1c1c1"/><stop offset="1" stop-color="#c1c1c1" stop-opacity="0"/></radialGradient><radialGradient cx="333.14798" cy="15.5583" r="111.79821" gradientUnits="userSpaceOnUse" id="color-3"><stop offset="0" stop-color="#c1c1c1"/><stop offset="1" stop-color="#c1c1c1" stop-opacity="0"/></radialGradient><radialGradient cx="-1.20179" cy="21.82735" r="111.79821" gradientUnits="userSpaceOnUse" id="color-4"><stop offset="0" stop-color="#c1c1c1"/><stop offset="1" stop-color="#c1c1c1" stop-opacity="0"/></radialGradient><radialGradient cx="433.45291" cy="155.56726" r="111.79821" gradientUnits="userSpaceOnUse" id="color-5"><stop offset="0" stop-color="#c1c1c1"/><stop offset="1" stop-color="#c1c1c1" stop-opacity="0"/></radialGradient><radialGradient cx="368.67265" cy="211.98879" r="111.79821" gradientUnits="userSpaceOnUse" id="color-6"><stop offset="0" stop-color="#c1c1c1"/><stop offset="1" stop-color="#c1c1c1" stop-opacity="0"/></radialGradient><radialGradient cx="260.00897" cy="234.97534" r="111.79821" gradientUnits="userSpaceOnUse" id="color-7"><stop offset="0" stop-color="#c1c1c1"/><stop offset="1" stop-color="#c1c1c1" stop-opacity="0"/></radialGradient><radialGradient cx="52.0852" cy="294.53139" r="111.79821" gradientUnits="userSpaceOnUse" id="color-8"><stop offset="0" stop-color="#c1c1c1"/><stop offset="1" stop-color="#c1c1c1" stop-opacity="0"/></radialGradient><radialGradient cx="121.04484" cy="337.36996" r="111.79821" gradientUnits="userSpaceOnUse" id="color-9"><stop offset="0" stop-color="#979797"/><stop offset="1" stop-color="#979797" stop-opacity="0"/></radialGradient><radialGradient cx="436.58744" cy="304.97982" r="111.79821" gradientUnits="userSpaceOnUse" id="color-10"><stop offset="0" stop-color="#979797"/><stop offset="1" stop-color="#979797" stop-opacity="0"/></radialGradient><radialGradient cx="144.03139" cy="222.43722" r="111.79821" gradientUnits="userSpaceOnUse" id="color-11"><stop offset="0" stop-color="#979797"/><stop offset="1" stop-color="#979797" stop-opacity="0"/></radialGradient><radialGradient cx="348.82063" cy="309.15919" r="111.79821" gradientUnits="userSpaceOnUse" id="color-12"><stop offset="0" stop-color="#979797"/><stop offset="1" stop-color="#979797" stop-opacity="0"/></radialGradient><radialGradient cx="98.0583" cy="222.43722" r="111.79821" gradientUnits="userSpaceOnUse" id="color-13"><stop offset="0" stop-color="#d9d9d9"/><stop offset="1" stop-color="#d9d9d9" stop-opacity="0"/></radialGradient><radialGradient cx="276.72646" cy="77.20404" r="111.79821" gradientUnits="userSpaceOnUse" id="color-14"><stop offset="0" stop-color="#d9d9d9"/><stop offset="1" stop-color="#d9d9d9" stop-opacity="0"/></radialGradient><radialGradient cx="47.90583" cy="196.31614" r="111.79821" gradientUnits="userSpaceOnUse" id="color-15"><stop offset="0" stop-color="#d9d9d9"/><stop offset="1" stop-color="#d9d9d9" stop-opacity="0"/></radialGradient><radialGradient cx="265.23318" cy="318.56278" r="111.79821" gradientUnits="userSpaceOnUse" id="color-16"><stop offset="0" stop-color="#d9d9d9"/><stop offset="1" stop-color="#d9d9d9" stop-opacity="0"/></radialGradient><radialGradient cx="416.73543" cy="99.14574" r="111.79821" gradientUnits="userSpaceOnUse" id="color-17"><stop offset="0" stop-color="#d9d9d9"/><stop offset="1" stop-color="#d9d9d9" stop-opacity="0"/></radialGradient><radialGradient cx="84.47534" cy="96.01121" r="111.79821" gradientUnits="userSpaceOnUse" id="color-18"><stop offset="0" stop-color="#d9d9d9"/><stop offset="1" stop-color="#d9d9d9" stop-opacity="0"/></radialGradient><radialGradient cx="155.52466" cy="22.8722" r="111.79821" gradientUnits="userSpaceOnUse" id="color-19"><stop offset="0" stop-color="#d9d9d9"/><stop offset="1" stop-color="#d9d9d9" stop-opacity="0"/></radialGradient><radialGradient cx="718.08072" cy="146.16368" r="111.79821" gradientUnits="userSpaceOnUse" id="color-20"><stop offset="0" stop-color="#c1c1c1"/><stop offset="1" stop-color="#c1c1c1" stop-opacity="0"/></radialGradient><radialGradient cx="977.20179" cy="35.41031" r="111.79821" gradientUnits="userSpaceOnUse" id="color-21"><stop offset="0" stop-color="#c1c1c1"/><stop offset="1" stop-color="#c1c1c1" stop-opacity="0"/></radialGradient><radialGradient cx="836.14798" cy="15.5583" r="111.79821" gradientUnits="userSpaceOnUse" id="color-22"><stop offset="0" stop-color="#c1c1c1"/><stop offset="1" stop-color="#c1c1c1" stop-opacity="0"/></radialGradient><radialGradient cx="501.79821" cy="21.82735" r="111.79821" gradientUnits="userSpaceOnUse" id="color-23"><stop offset="0" stop-color="#c1c1c1"/><stop offset="1" stop-color="#c1c1c1" stop-opacity="0"/></radialGradient><radialGradient cx="936.45291" cy="155.56726" r="111.79821" gradientUnits="userSpaceOnUse" id="color-24"><stop offset="0" stop-color="#c1c1c1"/><stop offset="1" stop-color="#c1c1c1" stop-opacity="0"/></radialGradient><radialGradient cx="871.67265" cy="211.98879" r="111.79821" gradientUnits="userSpaceOnUse" id="color-25"><stop offset="0" stop-color="#c1c1c1"/><stop offset="1" stop-color="#c1c1c1" stop-opacity="0"/></radialGradient><radialGradient cx="763.00897" cy="234.97534" r="111.79821" gradientUnits="userSpaceOnUse" id="color-26"><stop offset="0" stop-color="#c1c1c1"/><stop offset="1" stop-color="#c1c1c1" stop-opacity="0"/></radialGradient><radialGradient cx="555.0852" cy="294.53139" r="111.79821" gradientUnits="userSpaceOnUse" id="color-27"><stop offset="0" stop-color="#c1c1c1"/><stop offset="1" stop-color="#c1c1c1" stop-opacity="0"/></radialGradient><radialGradient cx="624.04484" cy="337.36996" r="111.79821" gradientUnits="userSpaceOnUse" id="color-28"><stop offset="0" stop-color="#979797"/><stop offset="1" stop-color="#979797" stop-opacity="0"/></radialGradient><radialGradient cx="939.58744" cy="304.97982" r="111.79821" gradientUnits="userSpaceOnUse" id="color-29"><stop offset="0" stop-color="#979797"/><stop offset="1" stop-color="#979797" stop-opacity="0"/></radialGradient><radialGradient cx="647.03139" cy="222.43722" r="111.79821" gradientUnits="userSpaceOnUse" id="color-30"><stop offset="0" stop-color="#979797"/><stop offset="1" stop-color="#979797" stop-opacity="0"/></radialGradient><radialGradient cx="851.82063" cy="309.15919" r="111.79821" gradientUnits="userSpaceOnUse" id="color-31"><stop offset="0" stop-color="#979797"/><stop offset="1" stop-color="#979797" stop-opacity="0"/></radialGradient><radialGradient cx="601.0583" cy="222.43722" r="111.79821" gradientUnits="userSpaceOnUse" id="color-32"><stop offset="0" stop-color="#d9d9d9"/><stop offset="1" stop-color="#d9d9d9" stop-opacity="0"/></radialGradient><radialGradient cx="779.72646" cy="77.20404" r="111.79821" gradientUnits="userSpaceOnUse" id="color-33"><stop offset="0" stop-color="#d9d9d9"/><stop offset="1" stop-color="#d9d9d9" stop-opacity="0"/></radialGradient><radialGradient cx="550.90583" cy="196.31614" r="111.79821" gradientUnits="userSpaceOnUse" id="color-34"><stop offset="0" stop-color="#d9d9d9"/><stop offset="1" stop-color="#d9d9d9" stop-opacity="0"/></radialGradient><radialGradient cx="768.23318" cy="318.56278" r="111.79821" gradientUnits="userSpaceOnUse" id="color-35"><stop offset="0" stop-color="#d9d9d9"/><stop offset="1" stop-color="#d9d9d9" stop-opacity="0"/></radialGradient><radialGradient cx="919.73543" cy="99.14574" r="111.79821" gradientUnits="userSpaceOnUse" id="color-36"><stop offset="0" stop-color="#d9d9d9"/><stop offset="1" stop-color="#d9d9d9" stop-opacity="0"/></radialGradient><radialGradient cx="587.47534" cy="96.01121" r="111.79821" gradientUnits="userSpaceOnUse" id="color-37"><stop offset="0" stop-color="#d9d9d9"/><stop offset="1" stop-color="#d9d9d9" stop-opacity="0"/></radialGradient><radialGradient cx="658.52466" cy="22.8722" r="111.79821" gradientUnits="userSpaceOnUse" id="color-38"><stop offset="0" stop-color="#d9d9d9"/><stop offset="1" stop-color="#d9d9d9" stop-opacity="0"/></radialGradient><linearGradient x1="371" y1="-7" x2="371" y2="69" gradientUnits="userSpaceOnUse" id="color-39"><stop offset="0" stop-color="#000000"/><stop offset="1" stop-color="#000000" stop-opacity="0"/></linearGradient></defs><g transform="translate(159,34.07174)"><g data-paper-data="{&quot;isPaintingLayer&quot;:true}" fill="none" fill-rule="nonzero" stroke="none" stroke-width="0" stroke-linecap="butt" stroke-linejoin="miter" stroke-miterlimit="10" stroke-dasharray="" stroke-dashoffset="0" font-family="none" font-weight="none" font-size="none" text-anchor="none" style="mix-blend-mode: normal"><g data-paper-data="{&quot;origPos&quot;:null}"><path d="M326.87892,146.16368c0,27.40992 -50.05376,49.63004 -111.79821,49.63004c-61.74444,0 -111.79821,-22.22013 -111.79821,-49.63004c0,-27.40992 50.05376,-49.63004 111.79821,-49.63004c61.74444,0 111.79821,22.22013 111.79821,49.63004z" data-paper-data="{&quot;origPos&quot;:null}" fill="url(#color-1)"/><path d="M586,35.41031c0,27.40992 -50.05376,49.63004 -111.79821,49.63004c-61.74444,0 -111.79821,-22.22013 -111.79821,-49.63004c0,-27.40992 50.05376,-49.63004 111.79821,-49.63004c61.74444,0 111.79821,22.22013 111.79821,49.63004z" data-paper-data="{&quot;origPos&quot;:null}" fill="url(#color-2)"/><path d="M444.94619,15.5583c0,27.40992 -50.05376,49.63004 -111.79821,49.63004c-61.74444,0 -111.79821,-22.22013 -111.79821,-49.63004c0,-27.40992 50.05376,-49.63004 111.79821,-49.63004c61.74444,0 111.79821,22.22013 111.79821,49.63004z" data-paper-data="{&quot;origPos&quot;:null}" fill="url(#color-3)"/><path d="M110.59641,21.82735c0,27.40992 -50.05376,49.63004 -111.79821,49.63004c-61.74444,0 -111.79821,-22.22013 -111.79821,-49.63004c0,-27.40992 50.05376,-49.63004 111.79821,-49.63004c61.74444,0 111.79821,22.22013 111.79821,49.63004z" data-paper-data="{&quot;origPos&quot;:null}" fill="url(#color-4)"/><path d="M545.25112,155.56726c0,27.40992 -50.05376,49.63004 -111.79821,49.63004c-61.74444,0 -111.79821,-22.22013 -111.79821,-49.63004c0,-27.40992 50.05376,-49.63004 111.79821,-49.63004c61.74444,0 111.79821,22.22013 111.79821,49.63004z" data-paper-data="{&quot;origPos&quot;:null}" fill="url(#color-5)"/><path d="M480.47085,211.98879c0,27.40992 -50.05376,49.63004 -111.79821,49.63004c-61.74444,0 -111.79821,-22.22013 -111.79821,-49.63004c0,-27.40992 50.05376,-49.63004 111.79821,-49.63004c61.74444,0 111.79821,22.22013 111.79821,49.63004z" data-paper-data="{&quot;origPos&quot;:null}" fill="url(#color-6)"/><path d="M371.80717,234.97534c0,27.40992 -50.05376,49.63004 -111.79821,49.63004c-61.74444,0 -111.79821,-22.22013 -111.79821,-49.63004c0,-27.40992 50.05376,-49.63004 111.79821,-49.63004c61.74444,0 111.79821,22.22013 111.79821,49.63004z" data-paper-data="{&quot;origPos&quot;:null}" fill="url(#color-7)"/><path d="M163.88341,294.53139c0,27.40992 -50.05376,49.63004 -111.79821,49.63004c-61.74444,0 -111.79821,-22.22013 -111.79821,-49.63004c0,-27.40992 50.05376,-49.63004 111.79821,-49.63004c61.74444,0 111.79821,22.22013 111.79821,49.63004z" data-paper-data="{&quot;origPos&quot;:null}" fill="url(#color-8)"/><path d="M232.84305,337.36996c0,27.40992 -50.05376,49.63004 -111.79821,49.63004c-61.74444,0 -111.79821,-22.22013 -111.79821,-49.63004c0,-27.40992 50.05376,-49.63004 111.79821,-49.63004c61.74444,0 111.79821,22.22013 111.79821,49.63004z" data-paper-data="{&quot;origPos&quot;:null}" fill="url(#color-9)"/><path d="M548.38565,304.97982c0,27.40992 -50.05376,49.63004 -111.79821,49.63004c-61.74444,0 -111.79821,-22.22013 -111.79821,-49.63004c0,-27.40992 50.05376,-49.63004 111.79821,-49.63004c61.74444,0 111.79821,22.22013 111.79821,49.63004z" data-paper-data="{&quot;origPos&quot;:null}" fill="url(#color-10)"/><path d="M255.8296,222.43722c0,27.40992 -50.05376,49.63004 -111.79821,49.63004c-61.74444,0 -111.79821,-22.22013 -111.79821,-49.63004c0,-27.40992 50.05376,-49.63004 111.79821,-49.63004c61.74444,0 111.79821,22.22013 111.79821,49.63004z" data-paper-data="{&quot;origPos&quot;:null}" fill="url(#color-11)"/><path d="M460.61883,309.15919c0,27.40992 -50.05376,49.63004 -111.79821,49.63004c-61.74444,0 -111.79821,-22.22013 -111.79821,-49.63004c0,-27.40992 50.05376,-49.63004 111.79821,-49.63004c61.74444,0 111.79821,22.22013 111.79821,49.63004z" data-paper-data="{&quot;origPos&quot;:null}" fill="url(#color-12)"/><path d="M209.8565,222.43722c0,27.40992 -50.05376,49.63004 -111.79821,49.63004c-61.74444,0 -111.79821,-22.22013 -111.79821,-49.63004c0,-27.40992 50.05376,-49.63004 111.79821,-49.63004c61.74444,0 111.79821,22.22013 111.79821,49.63004z" data-paper-data="{&quot;origPos&quot;:null}" fill="url(#color-13)"/><path d="M388.52466,77.20404c0,27.40992 -50.05376,49.63004 -111.79821,49.63004c-61.74444,0 -111.79821,-22.22013 -111.79821,-49.63004c0,-27.40992 50.05376,-49.63004 111.79821,-49.63004c61.74444,0 111.79821,22.22013 111.79821,49.63004z" data-paper-data="{&quot;origPos&quot;:null}" fill="url(#color-14)"/><path d="M159.70404,196.31614c0,27.40992 -50.05376,49.63004 -111.79821,49.63004c-61.74444,0 -111.79821,-22.22013 -111.79821,-49.63004c0,-27.40992 50.05376,-49.63004 111.79821,-49.63004c61.74444,0 111.79821,22.22013 111.79821,49.63004z" data-paper-data="{&quot;origPos&quot;:null}" fill="url(#color-15)"/><path d="M377.03139,318.56278c0,27.40992 -50.05376,49.63004 -111.79821,49.63004c-61.74444,0 -111.79821,-22.22013 -111.79821,-49.63004c0,-27.40992 50.05376,-49.63004 111.79821,-49.63004c61.74444,0 111.79821,22.22013 111.79821,49.63004z" data-paper-data="{&quot;origPos&quot;:null}" fill="url(#color-16)"/><path d="M528.53363,99.14574c0,27.40992 -50.05376,49.63004 -111.79821,49.63004c-61.74444,0 -111.79821,-22.22013 -111.79821,-49.63004c0,-27.40992 50.05376,-49.63004 111.79821,-49.63004c61.74444,0 111.79821,22.22013 111.79821,49.63004z" data-paper-data="{&quot;origPos&quot;:null}" fill="url(#color-17)"/><path d="M196.27354,96.01121c0,27.40992 -50.05376,49.63004 -111.79821,49.63004c-61.74444,0 -111.79821,-22.22013 -111.79821,-49.63004c0,-27.40992 50.05376,-49.63004 111.79821,-49.63004c61.74444,0 111.79821,22.22013 111.79821,49.63004z" data-paper-data="{&quot;origPos&quot;:null}" fill="url(#color-18)"/><path d="M267.32287,22.8722c0,27.40992 -50.05376,49.63004 -111.79821,49.63004c-61.74444,0 -111.79821,-22.22013 -111.79821,-49.63004c0,-27.40992 50.05376,-49.63004 111.79821,-49.63004c61.74444,0 111.79821,22.22013 111.79821,49.63004z" data-paper-data="{&quot;origPos&quot;:null}" fill="url(#color-19)"/></g><g data-paper-data="{&quot;origPos&quot;:null}"><path d="M829.87892,146.16368c0,27.40992 -50.05376,49.63004 -111.79821,49.63004c-61.74444,0 -111.79821,-22.22013 -111.79821,-49.63004c0,-27.40992 50.05376,-49.63004 111.79821,-49.63004c61.74444,0 111.79821,22.22013 111.79821,49.63004z" data-paper-data="{&quot;origPos&quot;:null}" fill="url(#color-20)"/><path d="M1089,35.41031c0,27.40992 -50.05376,49.63004 -111.79821,49.63004c-61.74444,0 -111.79821,-22.22013 -111.79821,-49.63004c0,-27.40992 50.05376,-49.63004 111.79821,-49.63004c61.74444,0 111.79821,22.22013 111.79821,49.63004z" data-paper-data="{&quot;origPos&quot;:null}" fill="url(#color-21)"/><path d="M947.94619,15.5583c0,27.40992 -50.05376,49.63004 -111.79821,49.63004c-61.74444,0 -111.79821,-22.22013 -111.79821,-49.63004c0,-27.40992 50.05376,-49.63004 111.79821,-49.63004c61.74444,0 111.79821,22.22013 111.79821,49.63004z" data-paper-data="{&quot;origPos&quot;:null}" fill="url(#color-22)"/><path d="M613.59641,21.82735c0,27.40992 -50.05376,49.63004 -111.79821,49.63004c-61.74444,0 -111.79821,-22.22013 -111.79821,-49.63004c0,-27.40992 50.05376,-49.63004 111.79821,-49.63004c61.74444,0 111.79821,22.22013 111.79821,49.63004z" data-paper-data="{&quot;origPos&quot;:null}" fill="url(#color-23)"/><path d="M1048.25112,155.56726c0,27.40992 -50.05376,49.63004 -111.79821,49.63004c-61.74444,0 -111.79821,-22.22013 -111.79821,-49.63004c0,-27.40992 50.05376,-49.63004 111.79821,-49.63004c61.74444,0 111.79821,22.22013 111.79821,49.63004z" data-paper-data="{&quot;origPos&quot;:null}" fill="url(#color-24)"/><path d="M983.47085,211.98879c0,27.40992 -50.05376,49.63004 -111.79821,49.63004c-61.74444,0 -111.79821,-22.22013 -111.79821,-49.63004c0,-27.40992 50.05376,-49.63004 111.79821,-49.63004c61.74444,0 111.79821,22.22013 111.79821,49.63004z" data-paper-data="{&quot;origPos&quot;:null}" fill="url(#color-25)"/><path d="M874.80717,234.97534c0,27.40992 -50.05376,49.63004 -111.79821,49.63004c-61.74444,0 -111.79821,-22.22013 -111.79821,-49.63004c0,-27.40992 50.05376,-49.63004 111.79821,-49.63004c61.74444,0 111.79821,22.22013 111.79821,49.63004z" data-paper-data="{&quot;origPos&quot;:null}" fill="url(#color-26)"/><path d="M666.88341,294.53139c0,27.40992 -50.05376,49.63004 -111.79821,49.63004c-61.74444,0 -111.79821,-22.22013 -111.79821,-49.63004c0,-27.40992 50.05376,-49.63004 111.79821,-49.63004c61.74444,0 111.79821,22.22013 111.79821,49.63004z" data-paper-data="{&quot;origPos&quot;:null}" fill="url(#color-27)"/><path d="M735.84305,337.36996c0,27.40992 -50.05376,49.63004 -111.79821,49.63004c-61.74444,0 -111.79821,-22.22013 -111.79821,-49.63004c0,-27.40992 50.05376,-49.63004 111.79821,-49.63004c61.74444,0 111.79821,22.22013 111.79821,49.63004z" data-paper-data="{&quot;origPos&quot;:null}" fill="url(#color-28)"/><path d="M1051.38565,304.97982c0,27.40992 -50.05376,49.63004 -111.79821,49.63004c-61.74444,0 -111.79821,-22.22013 -111.79821,-49.63004c0,-27.40992 50.05376,-49.63004 111.79821,-49.63004c61.74444,0 111.79821,22.22013 111.79821,49.63004z" data-paper-data="{&quot;origPos&quot;:null}" fill="url(#color-29)"/><path d="M758.8296,222.43722c0,27.40992 -50.05376,49.63004 -111.79821,49.63004c-61.74444,0 -111.79821,-22.22013 -111.79821,-49.63004c0,-27.40992 50.05376,-49.63004 111.79821,-49.63004c61.74444,0 111.79821,22.22013 111.79821,49.63004z" data-paper-data="{&quot;origPos&quot;:null}" fill="url(#color-30)"/><path d="M963.61883,309.15919c0,27.40992 -50.05376,49.63004 -111.79821,49.63004c-61.74444,0 -111.79821,-22.22013 -111.79821,-49.63004c0,-27.40992 50.05376,-49.63004 111.79821,-49.63004c61.74444,0 111.79821,22.22013 111.79821,49.63004z" data-paper-data="{&quot;origPos&quot;:null}" fill="url(#color-31)"/><path d="M712.8565,222.43722c0,27.40992 -50.05376,49.63004 -111.79821,49.63004c-61.74444,0 -111.79821,-22.22013 -111.79821,-49.63004c0,-27.40992 50.05376,-49.63004 111.79821,-49.63004c61.74444,0 111.79821,22.22013 111.79821,49.63004z" data-paper-data="{&quot;origPos&quot;:null}" fill="url(#color-32)"/><path d="M891.52466,77.20404c0,27.40992 -50.05376,49.63004 -111.79821,49.63004c-61.74444,0 -111.79821,-22.22013 -111.79821,-49.63004c0,-27.40992 50.05376,-49.63004 111.79821,-49.63004c61.74444,0 111.79821,22.22013 111.79821,49.63004z" data-paper-data="{&quot;origPos&quot;:null}" fill="url(#color-33)"/><path d="M662.70404,196.31614c0,27.40992 -50.05376,49.63004 -111.79821,49.63004c-61.74444,0 -111.79821,-22.22013 -111.79821,-49.63004c0,-27.40992 50.05376,-49.63004 111.79821,-49.63004c61.74444,0 111.79821,22.22013 111.79821,49.63004z" data-paper-data="{&quot;origPos&quot;:null}" fill="url(#color-34)"/><path d="M880.03139,318.56278c0,27.40992 -50.05376,49.63004 -111.79821,49.63004c-61.74444,0 -111.79821,-22.22013 -111.79821,-49.63004c0,-27.40992 50.05376,-49.63004 111.79821,-49.63004c61.74444,0 111.79821,22.22013 111.79821,49.63004z" data-paper-data="{&quot;origPos&quot;:null}" fill="url(#color-35)"/><path d="M1031.53363,99.14574c0,27.40992 -50.05376,49.63004 -111.79821,49.63004c-61.74444,0 -111.79821,-22.22013 -111.79821,-49.63004c0,-27.40992 50.05376,-49.63004 111.79821,-49.63004c61.74444,0 111.79821,22.22013 111.79821,49.63004z" data-paper-data="{&quot;origPos&quot;:null}" fill="url(#color-36)"/><path d="M699.27354,96.01121c0,27.40992 -50.05376,49.63004 -111.79821,49.63004c-61.74444,0 -111.79821,-22.22013 -111.79821,-49.63004c0,-27.40992 50.05376,-49.63004 111.79821,-49.63004c61.74444,0 111.79821,22.22013 111.79821,49.63004z" data-paper-data="{&quot;origPos&quot;:null}" fill="url(#color-37)"/><path d="M770.32287,22.8722c0,27.40992 -50.05376,49.63004 -111.79821,49.63004c-61.74444,0 -111.79821,-22.22013 -111.79821,-49.63004c0,-27.40992 50.05376,-49.63004 111.79821,-49.63004c61.74444,0 111.79821,22.22013 111.79821,49.63004z" data-paper-data="{&quot;origPos&quot;:null}" fill="url(#color-38)"/></g><path d="M-159,69v-76h1060v76z" data-paper-data="{&quot;origPos&quot;:null}" fill="url(#color-39)"/></g></g></svg>