<svg version="1.1" xmlns="http://www.w3.org/2000/svg" xmlns:xlink="http://www.w3.org/1999/xlink" width="641.21685" height="538.26974"><defs><radialGradient cx="473.00002" cy="14.20001" r="86.21682" gradientUnits="userSpaceOnUse" id="color-1"><stop offset="0" stop-color="#fcfcfc"/><stop offset="1" stop-color="#fcfcfc" stop-opacity="0"/></radialGradient></defs><g transform="translate(82,67.66973)"><g data-paper-data="{&quot;isPaintingLayer&quot;:true}" fill="none" fill-rule="nonzero" stroke="none" stroke-width="none" stroke-linecap="none" stroke-linejoin="miter" stroke-miterlimit="10" stroke-dasharray="" stroke-dashoffset="0" font-family="none" font-weight="none" font-size="none" text-anchor="none" style="mix-blend-mode: normal"><path d="" id="path3001" fill="none" stroke="none" stroke-width="NaN" stroke-linecap="butt"/><path d="" id="path3003" fill="#000000" stroke="none" stroke-width="2" stroke-linecap="butt"/><path d="" id="path3005" fill="none" stroke="none" stroke-width="NaN" stroke-linecap="butt"/><path d="" id="path3011" fill="#000000" stroke="none" stroke-width="2" stroke-linecap="butt"/><path d="" id="path3015" fill="#000000" stroke="none" stroke-width="2" stroke-linecap="butt"/><path d="" id="path3017" fill="#000000" stroke="none" stroke-width="2" stroke-linecap="butt"/><path d="" id="path3019" fill="#000000" stroke="none" stroke-width="2" stroke-linecap="butt"/><path d="" id="path3019" fill="#000000" stroke="none" stroke-width="2" stroke-linecap="butt"/><path d="" id="path3035" fill="#000000" stroke="none" stroke-width="2" stroke-linecap="butt"/><path d="" id="path3039" fill="#000000" stroke="none" stroke-width="2" stroke-linecap="butt"/><path d="" data-paper-data="{&quot;origPos&quot;:null}" id="path3041" fill="#000000" stroke="none" stroke-width="2" stroke-linecap="butt"/><path d="" data-paper-data="{&quot;origPos&quot;:null}" id="path3041" fill="#000000" stroke="none" stroke-width="2" stroke-linecap="butt"/><path d="" id="path3045" fill="#000000" stroke="none" stroke-width="2" stroke-linecap="butt"/><path d="" id="path3049" fill="#000000" stroke="none" stroke-width="2" stroke-linecap="butt"/><path d="" id="path3051" fill="#000000" stroke="none" stroke-width="2" stroke-linecap="butt"/><path d="" id="path3053" fill="#000000" stroke="none" stroke-width="0.5" stroke-linecap="butt"/><path d="" id="path3055" fill="#000000" stroke="none" stroke-width="2" stroke-linecap="butt"/><path d="" id="path3057" fill="#000000" stroke="none" stroke-width="0.5" stroke-linecap="butt"/><path d="" id="path3059" fill="#000000" stroke="none" stroke-width="0.5" stroke-linecap="butt"/><path d="" id="path3061" fill="#000000" stroke="none" stroke-width="0.5" stroke-linecap="butt"/><path d="" id="path3063" fill="#000000" stroke="none" stroke-width="0.5" stroke-linecap="butt"/><path d="" id="path3065" fill="#000000" stroke="none" stroke-width="2" stroke-linecap="butt"/><path d="" id="path3067" fill="#000000" stroke="none" stroke-width="0.5" stroke-linecap="butt"/><path d="" id="path3069" fill="#000000" stroke="none" stroke-width="0.5" stroke-linecap="butt"/><path d="" id="path3071" fill="#000000" stroke="none" stroke-width="2" stroke-linecap="butt"/><path d="" id="path3073" fill="#000000" stroke="none" stroke-width="2" stroke-linecap="butt"/><path d="" id="path3075" fill="#000000" stroke="none" stroke-width="2" stroke-linecap="butt"/><path d="" id="path3077" fill="#000000" stroke="none" stroke-width="2" stroke-linecap="butt"/><path d="" id="path3079" fill="#000000" stroke="none" stroke-width="0.5" stroke-linecap="butt"/><path d="" id="path3081" fill="#000000" stroke="none" stroke-width="0.5" stroke-linecap="butt"/><path d="" id="path3083" fill="#000000" stroke="none" stroke-width="0.5" stroke-linecap="butt"/><path d="" id="path3085" fill="#000000" stroke="none" stroke-width="2" stroke-linecap="butt"/><path d="" id="path3087" fill="#000000" stroke="none" stroke-width="2" stroke-linecap="butt"/><path d="" id="path3089" fill="#000000" stroke="none" stroke-width="2" stroke-linecap="butt"/><path d="" id="path3091" fill="#000000" stroke="none" stroke-width="2" stroke-linecap="butt"/><path d="" id="path3093" fill="#000000" stroke="none" stroke-width="2" stroke-linecap="butt"/><path d="" id="path3095" fill="#000000" stroke="none" stroke-width="2" stroke-linecap="butt"/><path d="" id="path3097" fill="#000000" stroke="none" stroke-width="2" stroke-linecap="butt"/><path d="" id="path3099" fill="#000000" stroke="none" stroke-width="2" stroke-linecap="butt"/><path d="" id="path3101" fill="#000000" stroke="none" stroke-width="2" stroke-linecap="butt"/><path d="" id="path3103" fill="#000000" stroke="none" stroke-width="0.5" stroke-linecap="butt"/><path d="" id="path3105" fill="#000000" stroke="none" stroke-width="2" stroke-linecap="butt"/><path d="" id="path3107" fill="#000000" stroke="none" stroke-width="2" stroke-linecap="butt"/><path d="" id="path3109" fill="#000000" stroke="none" stroke-width="2" stroke-linecap="butt"/><path d="" id="path3111" fill="#000000" stroke="none" stroke-width="2" stroke-linecap="butt"/><path d="" id="path3113" fill="#000000" stroke="none" stroke-width="2" stroke-linecap="butt"/><path d="" id="path3115" fill="#000000" stroke="none" stroke-width="0.5" stroke-linecap="butt"/><path d="" id="path3117" fill="#000000" stroke="none" stroke-width="2" stroke-linecap="butt"/><path d="" id="path3119" fill="#000000" stroke="none" stroke-width="0.5" stroke-linecap="butt"/><path d="" id="path3121" fill="#000000" stroke="none" stroke-width="0.5" stroke-linecap="butt"/><path d="" id="path3123" fill="#000000" stroke="none" stroke-width="2" stroke-linecap="butt"/><path d="" id="path3125" fill="#000000" stroke="none" stroke-width="2" stroke-linecap="butt"/><path d="" id="path3127" fill="#000000" stroke="none" stroke-width="0.5" stroke-linecap="butt"/><path d="" id="path3129" fill="#000000" stroke="none" stroke-width="0.5" stroke-linecap="butt"/><path d="" id="path3131" fill="#000000" stroke="none" stroke-width="0.5" stroke-linecap="butt"/><path d="" id="path3133" fill="#000000" stroke="none" stroke-width="0.5" stroke-linecap="butt"/><path d="" id="path3135" fill="#000000" stroke="none" stroke-width="0.5" stroke-linecap="butt"/><path d="" id="path3137" fill="#000000" stroke="none" stroke-width="2" stroke-linecap="butt"/><path d="" id="path3139" fill="#000000" stroke="none" stroke-width="0.5" stroke-linecap="butt"/><path d="" id="path3143" fill="#000000" stroke="none" stroke-width="2" stroke-linecap="butt"/><path d="" id="path3145" fill="#000000" stroke="none" stroke-width="2" stroke-linecap="butt"/><path d="" id="path3147" fill="#000000" stroke="none" stroke-width="2" stroke-linecap="butt"/><path d="" id="path3149" fill="#000000" stroke="none" stroke-width="2" stroke-linecap="butt"/><path d="" id="path3151" fill="#000000" stroke="none" stroke-width="2" stroke-linecap="butt"/><path d="" id="path3153" fill="#000000" stroke="none" stroke-width="2" stroke-linecap="butt"/><path d="" id="path3155" fill="#000000" stroke="none" stroke-width="2" stroke-linecap="butt"/><path d="" id="path3157" fill="#000000" stroke="none" stroke-width="0.5" stroke-linecap="butt"/><path d="" id="path3159" fill="#000000" stroke="none" stroke-width="2" stroke-linecap="butt"/><path d="" id="path3161" fill="#000000" stroke="none" stroke-width="2" stroke-linecap="butt"/><path d="" id="path3163" fill="#000000" stroke="none" stroke-width="2" stroke-linecap="butt"/><path d="" id="path3165" fill="#000000" stroke="none" stroke-width="2" stroke-linecap="butt"/><path d="" id="path3167" fill="#000000" stroke="none" stroke-width="2" stroke-linecap="butt"/><path d="" id="path3169" fill="#000000" stroke="none" stroke-width="2" stroke-linecap="butt"/><path d="" id="path3171" fill="#000000" stroke="none" stroke-width="0.5" stroke-linecap="butt"/><path d="" id="path3173" fill="#000000" stroke="none" stroke-width="0.5" stroke-linecap="butt"/><path d="" id="path3175" fill="#000000" stroke="none" stroke-width="0.5" stroke-linecap="butt"/><path d="" id="path3177" fill="#000000" stroke="none" stroke-width="0.5" stroke-linecap="butt"/><path d="M315.559,61.68374c-2.25526,0.59692 -4.51053,2.12291 -6.7658,4.57543l2.88591,-14.72283c1.92308,0.19724 3.14804,0.46197 3.68006,0.79415c0.26732,0.13236 2.05803,0.19724 5.37476,0.19724c9.48563,0 18.40807,-0.49571 26.76477,-1.48967l3.68006,15.82061c-0.99397,-1.72584 -2.42135,-3.16879 -4.27955,-4.32886c-1.85559,-1.16269 -3.78127,-1.71028 -5.76922,-1.64281l-14.92526,0.29847l-0.19724,22.09073l10.84295,0.09603c2.85218,0 4.84273,-1.82446 5.96907,-5.47077l0.30105,18.80256c-1.39365,-3.51397 -2.9508,-5.4033 -4.67664,-5.67062l-12.53763,-0.09602l-0.19984,20.19621c0,0.2673 0.03374,0.56316 0.10121,0.89277l15.32232,0.30105c1.98794,0.06747 3.91103,-0.48013 5.76922,-1.64021c1.85819,-1.16267 3.28299,-2.60302 4.27955,-4.32886l-3.68006,15.82061c-8.3567,-0.99657 -17.27915,-1.49486 -26.76477,-1.49486c-3.31672,0 -5.10745,0.06747 -5.37476,0.19984c-0.53202,0.33218 -1.757,0.59689 -3.68006,0.79673l-2.88591,-14.72801c1.99056,2.19039 4.01485,3.65151 6.07029,4.38077l0.69553,-49.64964z" data-paper-data="{&quot;origPos&quot;:null}" id="path3007" fill="#000000" stroke="none" stroke-width="2" stroke-linecap="butt"/><path d="M150.613,108.90686c0,0.28369 -0.3391,1.33203 -1.01953,3.14503l-3.82323,10.2817c-0.17065,0.16845 -0.3679,0.22606 -0.59399,0.16845c-1.64233,-0.79346 -3.65478,-1.5581 -6.03514,-2.29394c-5.26828,-1.64233 -10.76266,-2.80371 -16.4853,-3.48412c-4.13351,-0.50976 -6.48506,-0.90648 -7.05025,-1.19019c-1.07715,-0.56517 -1.89942,-2.15208 -2.46681,-4.75853l-0.84665,-25.49039l0.08421,-24.55728c0,-3.05856 -0.84887,-4.61668 -2.54881,-4.6721c0.45435,-0.05763 3.02976,-0.02881 7.73066,0.082c3.0608,0.05763 5.552,-0.13961 7.478,-0.59399c-1.24559,1.41625 -2.01024,2.38039 -2.29394,2.89014c-0.56517,1.01953 -0.84887,2.20971 -0.84887,3.56833c0,7.42039 0.11303,22.88615 0.34132,46.39507c0,0.50976 0.53638,0.96412 1.61131,1.35863c0.39895,0.17065 2.29616,0.70922 5.69605,1.61572c4.13351,1.13256 7.22091,1.69994 9.25994,1.69994c0.39672,0 0.96412,-0.18396 1.69994,-0.55188c0.73583,-0.37013 1.04833,-0.55409 0.93309,-0.55409c0.22829,0.05763 0.48316,-0.50754 0.76687,-1.69773l1.27441,-5.86227c-0.17065,-0.96412 -0.8799,-2.1543 -2.12549,-3.57277v-0.33911l7.90355,6.28783c0.90648,0.73805 1.35863,1.44507 1.35863,2.1255z" data-paper-data="{&quot;origPos&quot;:null}" id="path3021" fill="#000000" stroke="none" stroke-width="2" stroke-linecap="butt"/><path d="M424.18393,101.27247l-3.46315,-5.28024l-0.36342,-0.72684l0.54633,23.76703l-2.91447,-4.55341l-2.00473,21.85493l-6.55577,-37.61014l3.28027,2.18525l-3.46079,-22.58176l4.5534,2.00235l-2.54867,-21.40125c-0.85035,-1.15201 -1.82184,-2.30639 -2.91683,-3.46079l2.54867,0.09263l13.84311,0.09027c-0.97148,0.24465 -1.45604,1.39667 -1.45604,3.46079c0,0.18053 0.18288,0.57719 0.54631,1.18289c0.36342,0.60569 0.5772,0.97148 0.63658,1.09263l18.03073,44.89748v-42.4367c0,-2.4299 -0.90973,-3.88596 -2.73156,-4.37288l-0.09027,-0.27553h15.11627v0.09263c-1.94298,0.54631 -2.91446,2.06411 -2.91446,4.55578v50.53877c0,2.61043 0.90973,4.15911 2.73156,4.64366h-18.21361c0.54633,-0.11876 1.18526,-0.54393 1.91447,-1.27314c0.72921,-0.72921 1.09263,-1.36817 1.09263,-1.91447c0,0.30404 -0.45605,-0.78622 -1.36817,-3.27551l-14.02126,-37.88329z" data-paper-data="{&quot;origPos&quot;:null}" id="path3025" fill="#000000" stroke="none" stroke-width="2" stroke-linecap="butt"/><path d="M16.25043,76.55485l-3.42771,1.33285c-0.88857,0.44429 -1.26833,1.04743 -1.14174,1.80942c0.06452,2.53665 2.09484,4.40812 6.09095,5.6119l-0.28543,-29.69021c-0.25316,-2.21895 -1.42718,-3.80497 -3.52202,-4.75558h17.79625c-1.45944,1.14174 -2.18917,2.4746 -2.18917,3.9961l0.28543,30.63835c2.66572,-0.88609 5.86755,-2.43985 9.61049,-4.6588l0.09681,-26.74154c0,-1.58356 -0.12906,-2.63098 -0.38224,-3.1373c-0.50634,-0.9531 -1.80693,-1.9062 -3.90179,-2.85682l18.36713,-0.28544c-2.34801,2.03031 -3.61634,3.77519 -3.80745,5.23463l0.37975,21.40763c2.7923,-1.45696 4.85487,-2.18667 6.18775,-2.18667c1.33038,0 3.01321,0.38224 5.04352,1.14174c-2.22142,1.71261 -3.29864,3.90179 -3.23659,6.56503c-1.26833,-1.77716 -2.63345,-2.66572 -4.09289,-2.66572c-1.01515,0 -2.28347,0.44428 -3.80497,1.33287l0.56838,34.35149c0,1.65055 1.42966,3.04547 4.28403,4.1872l-20.07726,-0.28296c2.34552,-1.01515 3.77273,-2.53664 4.27903,-4.56943l0.0968,-26.83587c-3.61634,1.96825 -6.82068,3.30113 -9.61048,3.99858l0.19111,18.93798c0.31522,1.90373 1.80693,3.39297 4.47017,4.47264l-21.78986,-0.28791c3.48976,-1.07969 5.23462,-2.98095 5.23462,-5.70871l-0.19111,-18.36464c-6.02641,-1.45944 -8.97756,-4.88714 -8.84849,-10.27813c2.22143,-1.20629 4.12268,-1.80942 5.70871,-1.80942c0.50881,0 1.04743,0.03226 1.61829,0.0968z" data-paper-data="{&quot;origPos&quot;:null}" id="path3013" fill="#000000" stroke="none" stroke-width="2" stroke-linecap="butt"/><path d="M73.15611,116.28358l0.78474,1.07212l-1.15116,-0.47663l2.5023,4.44923l-5.26907,-5.20337" data-paper-data="{&quot;origPos&quot;:null}" id="path3031" fill="#000000" stroke="none" stroke-width="NaN" stroke-linecap="butt"/><path d="M281.63816,116.9501l-8.94611,-12.14678c-0.06386,0.68779 -0.0958,0.845 -0.0958,0.46671c-0.94324,0.75657 -2.07318,2.29425 -3.3898,4.61553c-1.31906,2.32373 -2.2918,3.73615 -2.91817,4.23971c-4.01863,3.13924 -6.43815,4.70886 -7.25367,4.70886c-0.5011,0 -0.87939,-0.15721 -1.12994,-0.47162l-9.98024,-13.5592c-0.37829,-0.31441 -0.59936,-3.73615 -0.66077,-10.26765l-0.28249,-21.37538c0,-1.31906 0.06142,-3.26698 0.18915,-5.84126c0.12527,-2.57428 0.18669,-4.51973 0.18669,-5.83881c0,-2.25741 -1.94545,-3.82704 -5.83635,-4.70642l8.94367,-0.28249l11.30424,0.9408c-2.449,0.62883 -3.76809,1.97737 -3.95722,4.04811c0.06141,0.69269 0.12527,5.40158 0.18915,14.12662l0.09333,14.5049c0.12527,8.85031 0.34388,13.62059 0.65831,14.31084c0.69269,1.44435 1.69736,2.16653 3.01643,2.16653c0.37336,0 0.75165,-0.02948 1.12747,-0.09334c1.4468,-2.57428 3.4856,-5.71107 6.12374,-9.41529l-0.47162,-22.69444c0.06141,-1.00712 0.53304,-1.66788 1.40996,-1.98229l5.55876,-6.40133v0.56497c-0.44214,0.37582 -0.66077,0.75165 -0.66077,1.12993c0,0.18913 0.28249,0.62637 0.84744,1.31662c0.56497,0.69269 0.84744,1.1938 0.84744,1.50821c0,10.4224 0.34635,20.71952 1.0366,30.88893c0,0.43968 0.41022,0.98747 1.22573,1.64824c0.81552,0.65831 1.25521,1.11273 1.31662,1.36329c0.69024,2.07318 1.22573,3.33085 1.5991,3.76809c0.87938,-0.18669 3.70667,-3.4512 8.47941,-9.79357c-0.12773,-2.07072 -0.09579,-7.3765 0.09089,-15.9124c0.12773,-5.2763 -0.06142,-10.48626 -0.56252,-15.63483c-0.31441,-3.13924 -1.91597,-5.05277 -4.80222,-5.74546c1.38048,0 3.41926,0.04668 6.12128,0.14247c2.69955,0.0958 4.73835,0.14247 6.11882,0.14247c0.94324,0 2.30899,-0.04667 4.09724,-0.14247c1.7907,-0.0958 3.15645,-0.14247 4.09724,-0.14247c-2.25986,1.00712 -3.51508,1.63349 -3.76563,1.8865c-0.81552,0.62637 -1.22328,1.84965 -1.22328,3.67229l0.28003,30.32149l-15.53903,20.81533c-0.31441,0.18669 -0.56497,0.28003 -0.75164,0.28003c-1.38294,-0.43968 -2.2918,-0.81552 -2.73149,-1.12993z" data-paper-data="{&quot;origPos&quot;:null}" id="path3043" fill="#000000" stroke="none" stroke-width="2" stroke-linecap="butt"/><path d="M231.40005,75.63836l-0.22803,-0.88604c0.0652,-0.00595 0.13051,-0.0119 0.19595,-0.01789z" data-paper-data="{&quot;origPos&quot;:null}" id="path3047" fill="#000000" stroke="none" stroke-width="2" stroke-linecap="butt"/><path d="M202.10771,108.66373c0,0.31035 -0.37096,1.45717 -1.11531,3.44049l-4.18242,11.24765c-0.18669,0.18427 -0.40248,0.2473 -0.6498,0.18427c-1.79662,-0.868 -3.99814,-1.70448 -6.60215,-2.50945c-5.76324,-1.79662 -11.7738,-3.0671 -18.03409,-3.81145c-4.52185,-0.55766 -7.09434,-0.99166 -7.71262,-1.302c-1.17835,-0.61827 -2.07788,-2.35427 -2.69856,-5.20559l-0.92619,-27.8852l0.09213,-26.86443c0,-3.34592 -0.92861,-5.05041 -2.78827,-5.11103c0.49704,-0.06304 3.31439,-0.03151 8.45695,0.0897c3.34838,0.06304 6.07361,-0.15274 8.18057,-0.64979c-1.36262,1.54931 -2.19912,2.60402 -2.50946,3.16168c-0.61827,1.1153 -0.92861,2.4173 -0.92861,3.90358c0,8.11753 0.12365,25.03629 0.37338,50.75389c0,0.55766 0.58676,1.05469 1.76269,1.48627c0.43642,0.18669 2.51188,0.77587 6.23118,1.76752c4.52185,1.23895 7.8993,1.85966 10.12992,1.85966c0.43401,0 1.0547,-0.20123 1.85966,-0.60373c0.80496,-0.40491 1.14683,-0.60615 1.02074,-0.60615c0.24974,0.06304 0.52856,-0.55523 0.8389,-1.85724l1.39416,-6.41303c-0.18669,-1.05469 -0.96256,-2.3567 -2.32518,-3.90843v-0.37096l8.64609,6.87856c0.99165,0.80738 1.48627,1.58083 1.48627,2.32518z" data-paper-data="{&quot;origPos&quot;:null}" id="path3021" fill="#000000" stroke="none" stroke-width="2" stroke-linecap="butt"/><path d="M366.03183,64.70343c-2.23645,0.59194 -4.47293,2.1052 -6.70938,4.53726l2.86184,-14.60003c1.90703,0.19561 3.12178,0.4581 3.64938,0.78752c0.26508,0.13125 2.04085,0.19559 5.32992,0.19559c9.40652,0 18.25455,-0.49154 26.54155,-1.47726l3.64938,15.68867c-0.9857,-1.71143 -2.40117,-3.14238 -4.24389,-4.29277c-1.84013,-1.15297 -3.74974,-1.696 -5.72112,-1.62908l-14.80078,0.29596l-0.19559,21.90649l10.7525,0.09521c2.82837,0 4.80232,-1.80924 5.91928,-5.42516l0.29854,18.64574c-1.38202,-3.48465 -2.92618,-5.35824 -4.63762,-5.62332l-12.43307,-0.09521l-0.19816,20.02776c0,0.26508 0.03345,0.55847 0.10037,0.88532l15.19454,0.29854c1.97137,0.06692 3.87843,-0.47614 5.72112,-1.62653c1.8427,-1.15297 3.2556,-2.5813 4.24386,-4.29276l-3.64936,15.68867c-8.287,-0.98827 -17.13503,-1.48239 -26.54155,-1.48239c-3.28907,0 -5.06484,0.0669 -5.32992,0.19816c-0.52759,0.32943 -1.74233,0.59194 -3.64936,0.79011l-2.86185,-14.60519c1.97395,2.1721 3.98136,3.62106 6.01966,4.34423l0.68973,-49.23555z" data-paper-data="{&quot;origPos&quot;:null}" id="path3007" fill="#000000" stroke="none" stroke-width="2" stroke-linecap="butt"/><path d="M92.05215,92.2034l-0.92127,-3.12609l-6.34574,-21.15566l-4.87267,16.46534c4.90385,4.53678 8.95121,7.14226 12.13967,7.81641zM66.85152,92.29697l-4.14092,-4.508c2.819,-3.86263 6.12982,-6.06985 9.93247,-6.62163l6.53287,-20.5127c0.48942,-1.53306 0.73654,-2.69904 0.73654,-3.49556c0,-2.32957 -0.52302,-3.77146 -1.56425,-4.32326h13.70392c-1.16359,0.5518 -1.74658,1.90253 -1.74658,4.04736c0,0.73653 0.18473,1.68661 0.54939,2.85258l10.1196,31.36643c1.04363,-0.49181 2.72783,-1.38192 5.05979,-2.67025c-1.35073,2.5143 -2.69903,4.47681 -4.04976,5.88991l3.68029,11.31197c0.61178,1.90012 0.95006,2.88137 1.01244,2.94375c0.36706,0.91887 0.95006,1.74658 1.74658,2.48071l2.66786,1.56423h-18.48781l2.30078,-1.56423c1.28595,-0.30709 1.93131,-1.22597 1.93131,-2.75901c0,-0.36706 -0.21592,-1.25476 -0.64297,-2.66545l-2.39195,-7.81882c-3.80265,-0.79651 -8.80007,-4.13853 -14.99226,-10.02603l-0.37186,1.28834l-7.08229,21.98099c-0.36467,1.16598 -0.54939,2.08725 -0.54939,2.75901c0,1.04363 0.89008,1.9337 2.66784,2.67024l-3.77146,0.18234h-6.06984l-4.60156,-0.18234c1.47308,-0.48942 2.39195,-1.04123 2.75901,-1.65541c0.18473,-0.30709 0.5542,-1.31953 1.106,-3.03731l8.64651,-26.94961c-2.63665,0.18473 -4.93743,1.31953 -6.89993,3.4044z" data-paper-data="{&quot;origPos&quot;:null}" id="path2999" fill="#000000" stroke="none" stroke-width="2" stroke-linecap="butt"/><path d="M240.82631,106.65561c0.37642,1.63357 -1.47859,4.11837 -5.56744,7.44949c-4.96468,4.02489 -9.77437,6.38421 -14.42907,7.07553l-2.82923,-0.47236c-2.8317,-2.32735 -5.56497,-4.65224 -8.20723,-6.98205c-4.77772,-4.21187 -7.44949,-7.54298 -8.01534,-9.99579c-0.18944,-4.33733 -0.28537,-8.86657 -0.28537,-13.58278c0,-8.04731 0.25094,-16.63096 0.75528,-25.74847c7.35601,-5.59695 14.99739,-9.87279 22.91923,-12.82748h2.35688l8.39666,10.46816c2.38886,2.45281 3.77148,7.54544 4.14789,15.2803c0.1919,3.89941 0.44284,13.67625 0.75775,29.33544zM229.31749,110.71002l-0.37642,-27.35252c-0.12546,-8.8026 -1.66802,-17.13283 -4.62272,-24.99318c-1.75905,0.75283 -4.14789,1.88451 -7.16656,3.39262c-1.69755,1.13169 -2.79971,2.57829 -3.3016,4.33733l-0.18944,42.72878c0.37642,1.06772 1.41461,2.35687 3.11216,3.86743c1.51056,1.38509 2.86122,2.35934 4.05686,2.92519c4.71375,-1.51056 7.54542,-3.14413 8.4877,-4.90564z" data-paper-data="{&quot;origPos&quot;:null}" id="path3027" fill="#000000" stroke="none" stroke-width="2" stroke-linecap="butt"/><path d="M-74,356.80005v-22h550v22z" data-paper-data="{&quot;origPos&quot;:null}" fill="#0c0c0c" stroke="none" stroke-width="0" stroke-linecap="butt"/><path d="M-5.21654,49.27153c0.2029,0.34769 0.38118,0.71494 0.53484,1.10176c0.40702,1.0083 0.61053,2.12295 0.61053,3.34399c0,1.22103 -0.20351,2.34033 -0.61053,3.35785c-0.40239,1.01291 -0.97359,1.89399 -1.7136,2.64327c-0.73539,0.74465 -1.60724,1.32048 -2.61552,1.7275c-1.0083,0.40239 -2.12526,0.60359 -3.35092,0.60359l-3.85736,-0.00001c-0.25437,0 -0.47177,-0.08788 -0.65214,-0.26363c-0.17575,-0.18039 -0.26363,-0.39776 -0.26363,-0.65214v-14.812c0,-0.27288 0.08788,-0.49259 0.26363,-0.65909c0.18039,-0.17113 0.39776,-0.2567 0.65214,-0.2567h3.85736c0.80042,0 1.55449,0.08679 2.26221,0.26038" data-paper-data="{&quot;origPos&quot;:null}" fill="none" stroke="none" stroke-width="NaN" stroke-linecap="none"/><path d="M234,417.80004v-242h44v242z" data-paper-data="{&quot;origPos&quot;:null}" fill="#000000" stroke="none" stroke-width="0" stroke-linecap="butt"/><path d="M-82,388.20005v-56.4h610v56.4z" data-paper-data="{&quot;origPos&quot;:null}" fill="#000000" stroke="none" stroke-width="0" stroke-linecap="butt"/><path d="M38.70833,335.80003l28.84309,-51.2766l25.6383,51.2766z" data-paper-data="{&quot;origPos&quot;:null}" fill="#000000" stroke="none" stroke-width="0" stroke-linecap="butt"/><path d="M91.38253,334.80003l28.84309,-51.2766l25.6383,51.2766z" data-paper-data="{&quot;origPos&quot;:null}" fill="#000000" stroke="none" stroke-width="0" stroke-linecap="butt"/><path d="M142.85195,332.80003l28.84309,-51.2766l25.6383,51.2766z" data-paper-data="{&quot;origPos&quot;:null}" fill="#000000" stroke="none" stroke-width="0" stroke-linecap="butt"/><path d="M-6,470.60002v-119.85h490v119.85z" data-paper-data="{&quot;origPos&quot;:null}" fill="#000000" stroke="none" stroke-width="0" stroke-linecap="butt"/><path d="M228,240.80001v-1h4v1z" fill="#000000" stroke="none" stroke-width="0" stroke-linecap="butt"/><path d="M63.15995,216.83335c-3.63067,-11.26125 2.09689,-23.1858 12.79287,-26.63422c10.69598,-3.44843 22.31002,2.88512 25.9407,14.14636c3.63067,11.26125 -2.09689,23.1858 -12.79287,26.63422c-10.69598,3.44843 -22.31002,-2.88512 -25.9407,-14.14636z" data-paper-data="{&quot;origPos&quot;:null,&quot;origRot&quot;:0}" fill="#000000" stroke="none" stroke-width="NaN" stroke-linecap="butt"/><path d="M72.6354,246.40287c-3.63067,-11.26125 2.0969,-23.1858 12.79288,-26.63423c10.69598,-3.44843 22.31002,2.88512 25.9407,14.14636c3.63067,11.26125 -2.09689,23.18578 -12.79287,26.63421c-10.69598,3.44843 -22.31003,-2.8851 -25.9407,-14.14635z" data-paper-data="{&quot;origPos&quot;:null,&quot;origRot&quot;:0}" fill="#000000" stroke="none" stroke-width="NaN" stroke-linecap="butt"/><path d="M72.97579,247.27913l-10.17606,-31.56305l17.775,-5.73073l10.17606,31.56305z" data-paper-data="{&quot;origPos&quot;:null,&quot;origRot&quot;:0}" fill="#000000" stroke="none" stroke-width="0" stroke-linecap="butt"/><path d="M101.04393,228.0542l-3.15188,-9.77617l11.14254,-3.5924l3.15188,9.77617z" data-paper-data="{&quot;origPos&quot;:null,&quot;origRot&quot;:0}" fill="#000000" stroke="none" stroke-width="0" stroke-linecap="butt"/><path d="M95.46274,261.61393l-6.2137,-19.27301l35.28469,-11.37593l6.2137,19.27301z" data-paper-data="{&quot;origPos&quot;:null,&quot;origRot&quot;:0}" fill="#000000" stroke="none" stroke-width="0" stroke-linecap="butt"/><path d="M81.70652,206.22857l-5.22311,-16.2005l33.1623,-10.69166l5.22311,16.2005z" data-paper-data="{&quot;origPos&quot;:null,&quot;origRot&quot;:0}" fill="#000000" stroke="none" stroke-width="0" stroke-linecap="butt"/><path d="M121.16913,220.8881c-10.69598,3.44843 -22.31003,-2.8851 -25.9407,-14.14635c-3.63067,-11.26125 2.0969,-23.1858 12.79288,-26.63423c10.69598,-3.44843 22.31002,2.88512 25.9407,14.14636c3.63067,11.26125 -2.09689,23.18578 -12.79287,26.63421z" data-paper-data="{&quot;origPos&quot;:null,&quot;index&quot;:null,&quot;origRot&quot;:0}" fill="#000000" stroke="none" stroke-width="NaN" stroke-linecap="butt"/><path d="M130.39408,250.23002c-10.69598,3.44843 -22.31002,-2.8851 -25.94069,-14.14635c-3.63067,-11.26125 2.09689,-23.1858 12.79287,-26.63422c10.69598,-3.44843 22.31003,2.88511 25.94071,14.14636c3.63067,11.26125 -2.0969,23.18579 -12.79288,26.63421z" data-paper-data="{&quot;origPos&quot;:null,&quot;index&quot;:null,&quot;origRot&quot;:0}" fill="#000000" stroke="none" stroke-width="NaN" stroke-linecap="butt"/><path d="M126.00283,230.43038l-10.17605,-31.56304l17.77499,-5.73073l10.17605,31.56304z" data-paper-data="{&quot;index&quot;:null,&quot;origPos&quot;:null,&quot;origRot&quot;:0}" fill="#000000" stroke="none" stroke-width="0" stroke-linecap="butt"/><path d="M113.44119,225.70916l-9.03605,-28.02709" data-paper-data="{&quot;origPos&quot;:null,&quot;origRot&quot;:0}" fill="none" stroke="#ffffff" stroke-width="7.5" stroke-linecap="round"/><path d="M120.34475,192.87938l9.03605,28.02709" data-paper-data="{&quot;origPos&quot;:null,&quot;origRot&quot;:0}" fill="none" stroke="#ffffff" stroke-width="7.5" stroke-linecap="round"/><path d="M559.21683,14.20001c0,45.21541 -38.60059,81.86974 -86.21681,81.86974c-47.61623,0 -86.21681,-36.65433 -86.21681,-81.86974c0,-45.21541 38.60059,-81.86974 86.21682,-81.86974c47.61623,0 86.21682,36.65434 86.21682,81.86974z" data-paper-data="{&quot;origPos&quot;:null}" fill="url(#color-1)" stroke="none" stroke-width="0" stroke-linecap="butt"/></g></g></svg>